#N canvas 0 25 892 656 12;
#X declare -lib unauthorized;
#X declare -lib unauthorized;
#X obj 399 130 cnv 15 130 15 empty empty empty 20 12 0 14 -260097 -66577
0;
#X obj 658 130 cnv 15 110 15 empty empty empty 20 12 0 14 -260097 -66577
0;
#X obj 95 366 matrice;
#N canvas 236 167 807 468 zoom 0;
#X floatatom 113 123 5 0 0 0 - - -;
#X floatatom 148 123 5 0 0 0 - - -;
#X floatatom 183 123 5 0 0 0 - - -;
#X obj 113 218 pack f f f;
#X obj 183 164 t b f;
#X obj 148 164 t b f;
#X obj 113 295 outlet;
#X msg 113 250 view \$1 \$2 \$3;
#X obj 225 128 tgl 15 0 empty empty empty 17 7 0 10 -262144 -1 -1 1
1;
#X obj 334 123 sel 1 0;
#X msg 358 275 0 \, destroy;
#X obj 113 -21 t b b b;
#X obj 303 149 t b b;
#X msg 183 47 8;
#X msg 148 25 7;
#X obj 414 -43 gemkeyboard;
#X obj 503 -43 key;
#X obj 414 7 sel 9;
#X obj 503 10 sel 27;
#X obj 335 318 gemwin;
#X text 137 98 Affichage;
#X text 124 139 X;
#X text 161 139 Y;
#X text 195 139 Z;
#X obj 225 17 init 1;
#X msg 113 3 9.33;
#X msg 335 200 reset \, border 1 \, dimen 800 600 \, offset 0 0 \,
create \, 1;
#X connect 0 0 3 0;
#X connect 1 0 5 0;
#X connect 2 0 4 0;
#X connect 3 0 7 0;
#X connect 4 0 3 0;
#X connect 4 1 3 2;
#X connect 5 0 3 0;
#X connect 5 1 3 1;
#X connect 7 0 6 0;
#X connect 7 0 19 0;
#X connect 8 0 9 0;
#X connect 9 0 12 0;
#X connect 9 1 10 0;
#X connect 10 0 6 0;
#X connect 10 0 19 0;
#X connect 11 0 25 0;
#X connect 11 1 14 0;
#X connect 11 2 13 0;
#X connect 12 0 11 0;
#X connect 12 1 26 0;
#X connect 13 0 2 0;
#X connect 14 0 1 0;
#X connect 15 0 17 0;
#X connect 16 0 18 0;
#X connect 17 0 8 0;
#X connect 18 0 8 0;
#X connect 24 0 8 0;
#X connect 25 0 0 0;
#X connect 26 0 6 0;
#X connect 26 0 19 0;
#X coords 0 -1 1 1 150 60 2 100 100;
#X restore 50 181 pd zoom;
#N canvas 0 25 1351 656 control 0;
#X obj 434 130 s grille;
#X obj 858 290 s rotate;
#X obj 120 115 tgl 15 0 empty empty empty 17 7 0 10 -262144 -1 -1 0
1;
#X obj 544 275 tgl 15 0 empty empty empty 17 7 0 10 -262144 -1 -1 0
1;
#X obj 120 140 tgl 15 0 empty empty empty 17 7 0 10 -262144 -1 -1 0
1;
#X obj 120 215 tgl 15 0 empty empty empty 17 7 0 10 -262144 -1 -1 0
1;
#X floatatom 173 271 5 0 0 0 - - -;
#X obj 434 290 s latence;
#X obj 20 95 init 1;
#X obj 900 137 init dsp 1;
#X obj 900 176 s pd;
#X obj 36 251 init 300;
#X text 140 111 Afficher la grille;
#X text 564 270 Mode rotation;
#X obj 434 155 s nombre;
#X text 117 271 Latence;
#X text 213 271 ms;
#X obj 173 399 pix_video;
#X obj 173 574 s flux-gem;
#X obj 173 487 pix_flip;
#X obj 201 439 init horizontal;
#X msg 173 339 device \$1;
#X obj 173 300 hradio 15 1 0 4 empty empty empty 0 -8 0 10 -262144
-1 -1 0;
#X obj 53 379 gemhead 50;
#X text 116 297 Camera;
#X obj 544 235 udpsend;
#X msg 673 215 connect 127.0.0.1 9997;
#X msg 544 193 send \$1;
#X obj 544 153 r nb-bang-de-mvt;
#X text 542 124 Pour envoyer les numeros des carres en OSC;
#X text 140 136 Afficher les nombres;
#X obj 443 565 separator;
#X obj 443 652 pix_texture;
#X obj 173 525 t a a;
#X obj 443 610 translateXYZ 9.33 7 0;
#X obj 443 697 rectangle 10.66 8;
#X obj 333 545 spigot 1;
#X obj 120 165 tgl 15 0 empty empty empty 17 7 0 10 -262144 -1 -1 1
1;
#X text 140 161 Afficher le fond;
#X obj 120 190 tgl 15 0 empty empty empty 17 7 0 10 -262144 -1 -1 1
1;
#X text 140 186 Mode video;
#X obj 434 205 s video-bt;
#X obj -9 170 init 0;
#X obj 434 230 s color;
#X obj 120 240 tgl 15 0 empty empty empty 17 7 0 10 -262144 -1 -1 0
1;
#X text 140 211 Mode blanc ou rouge;
#X text 140 236 Mode fantome;
#X obj 434 255 s ghost;
#X obj 0 220 init 0;
#X connect 2 0 0 0;
#X connect 3 0 1 0;
#X connect 4 0 14 0;
#X connect 5 0 43 0;
#X connect 6 0 7 0;
#X connect 8 0 2 0;
#X connect 8 0 5 0;
#X connect 8 0 37 0;
#X connect 9 0 10 0;
#X connect 11 0 6 0;
#X connect 17 0 19 0;
#X connect 19 0 33 0;
#X connect 20 0 19 0;
#X connect 21 0 17 0;
#X connect 22 0 21 0;
#X connect 23 0 17 0;
#X connect 26 0 25 0;
#X connect 27 0 25 0;
#X connect 31 0 34 0;
#X connect 32 0 35 0;
#X connect 33 0 18 0;
#X connect 33 1 36 0;
#X connect 34 0 32 0;
#X connect 36 0 31 0;
#X connect 37 0 36 1;
#X connect 39 0 41 0;
#X connect 42 0 39 0;
#X connect 44 0 47 0;
#X connect 48 0 44 0;
#X coords 0 -1 1 1 200 220 2 100 100;
#X restore 27 -59 pd control;
#X obj 325 -3 cnv 15 60 40 empty empty empty 20 12 0 14 -258113 -66577
0;
#X floatatom 335 7 5 0 0 0 - - -;
#X obj 335 -57 r nb-bang-de-mvt;
#X obj 335 425 echantillon poum.wav;
#X obj 365 308 echantillon tchack.wav;
#N canvas 0 25 1364 656 son 0;
#X obj -199 36 int;
#X obj -199 88 mtof;
#X floatatom -199 116 5 0 0 0 - - -;
#X obj -199 3 inlet;
#X obj 171 130 hsl 50 12 0 1 0 0 empty empty empty -2 -8 0 10 -262144
-1 -1 4900 1;
#X obj -199 142 spigot;
#X msg 352 294 set \$1;
#X obj 150 130 tgl 12 0 empty empty empty 17 7 0 10 -262144 -1 -1 1
1;
#X obj 91 200 sel 0 1;
#X msg 63 248 0;
#X text 106 126 On/Off;
#X msg 91 245 set 0;
#X msg 63 362 \$1 200;
#X obj 63 386 line~;
#X obj 168 342 spigot;
#X obj 188 180 t f b f;
#X obj 168 274 1;
#X text 223 124 Volume;
#X obj -199 63 + 50;
#X obj -199 438 poly-osc~;
#X obj 45 535 *~;
#X obj 44 579 dac~ 2;
#X obj -26 536 *~;
#X obj -27 580 dac~ 1;
#X obj 150 52 init 1;
#X connect 0 0 18 0;
#X connect 1 0 2 0;
#X connect 2 0 5 0;
#X connect 3 0 0 0;
#X connect 4 0 16 0;
#X connect 5 0 19 0;
#X connect 6 0 4 0;
#X connect 7 0 5 1;
#X connect 7 0 15 0;
#X connect 8 0 9 0;
#X connect 8 0 11 0;
#X connect 8 1 16 0;
#X connect 9 0 12 0;
#X connect 11 0 4 0;
#X connect 12 0 13 0;
#X connect 13 0 20 1;
#X connect 13 0 22 1;
#X connect 14 0 12 0;
#X connect 15 0 8 0;
#X connect 15 1 16 0;
#X connect 15 2 14 1;
#X connect 16 0 6 0;
#X connect 16 0 14 0;
#X connect 18 0 1 0;
#X connect 19 0 22 0;
#X connect 19 1 20 0;
#X connect 20 0 21 0;
#X connect 22 0 23 0;
#X connect 24 0 7 0;
#X coords 0 -1 1 1 170 60 1 100 100;
#X restore 594 185 pd son;
#X obj 335 270 sel 24 31;
#X text 562 349 Se declanche avec la case 31;
#X text 523 460 Se declanche avec la case 24;
#X text 543 247 Synthese sonore (gauche/grave droite/aigue);
#X text 395 6 <- numero du carre actif;
#X obj 633 130 tgl 15 0 empty empty empty 17 7 0 10 -262144 -1 -1 1
1;
#X text 657 126 Synthese sonore;
#X obj 374 130 tgl 15 0 empty empty empty 17 7 0 10 -262144 -1 -1 0
1;
#X text 400 126 Lecture de samples;
#X obj 594 155 spigot;
#X obj 335 155 spigot;
#X obj 633 82 init 1;
#N canvas 0 25 712 392 taille 0;
#X obj 468 199 s X-rect;
#X obj 447 329 s X-pos;
#X floatatom 447 159 5 0 0 0 - - -;
#X floatatom 447 285 5 0 0 0 - - -;
#X floatatom 563 160 5 0 0 0 - - -;
#X floatatom 563 286 5 0 0 0 - - -;
#X obj 584 200 s Y-rect;
#X obj 563 330 s Y-pos;
#X obj 563 93 init 1;
#X obj 505 20 bng 15 250 50 0 empty empty empty 17 7 0 10 -262144 -1
-1;
#X obj 563 233 * 2;
#X obj 447 232 * 2;
#X obj 447 93 init 1.33;
#X floatatom 230 182 5 0 0 0 - - -;
#X floatatom 104 209 5 0 0 0 - - -;
#X obj 104 172 bng 10 250 50 0 empty empty empty 17 7 0 10 -262144
-1 -1;
#X obj 230 218 s X-rect-sml;
#X obj 104 245 s Y-rect-sml;
#X obj 141 48 init 0.5;
#X obj 120 172 hsl 60 10 0 1 0 0 empty empty empty -2 -8 0 10 -262144
-1 -1 2950 1;
#X obj 104 107 vsl 10 60 0 1 0 0 empty empty empty 0 -9 0 10 -262144
-1 -1 2950 1;
#X text 126 124 Taille;
#X connect 2 0 0 0;
#X connect 2 0 11 0;
#X connect 3 0 1 0;
#X connect 4 0 6 0;
#X connect 4 0 10 0;
#X connect 5 0 7 0;
#X connect 8 0 4 0;
#X connect 9 0 8 0;
#X connect 9 0 12 0;
#X connect 10 0 5 0;
#X connect 11 0 3 0;
#X connect 12 0 2 0;
#X connect 13 0 16 0;
#X connect 14 0 17 0;
#X connect 15 0 18 0;
#X connect 18 0 20 0;
#X connect 18 0 19 0;
#X connect 19 0 13 0;
#X connect 20 0 14 0;
#X coords 0 -1 1 1 85 85 2 100 100;
#X restore 81 261 pd taille;
#X connect 6 0 20 0;
#X connect 6 0 21 0;
#X connect 7 0 6 0;
#X connect 11 0 8 0;
#X connect 11 1 9 0;
#X connect 16 0 20 1;
#X connect 18 0 21 1;
#X connect 20 0 10 0;
#X connect 21 0 11 0;
#X connect 22 0 16 0;
