#N canvas 0 25 1351 656 10;
#X text 793 -20 1;
#X text 831 -66 - x -;
#X text 793 -6 2;
#X text 793 6 3;
#X text 793 16 4;
#X text 793 27 5;
#X text 793 38 6;
#X text 793 48 7;
#X text 751 1 - y -;
#X obj 307 361 pix_mean_color;
#X obj 388 394 unpack 0 0 0 0;
#X obj 415 576 -;
#X obj 388 517 t 0 0;
#X obj 415 690 change;
#X obj 233 253 pix_crop 1 1 0 0;
#X obj 442 423 +;
#X obj 415 452 +;
#X obj 388 481 +;
#X obj 527 707 outlet;
#X obj 415 609 abs;
#X text 794 -32 0;
#X text 802 -45 0 1 2 3 4 5 6 7;
#X obj 29 941 pix_texture;
#X obj 29 1154 rectangle 0.5 0.5;
#X obj -5 363 \$1;
#X obj -66 250 loadbang;
#X obj 30 363 \$2;
#X obj 29 474 translateXYZ 0 0 0;
#X obj -292 -77 separator;
#X obj 29 909 alpha;
#X obj 415 769 line;
#X obj 415 715 bng 15 250 50 0 empty empty empty 17 7 0 10 -262144
-1 -1;
#X obj 116 1021 loadbang;
#X obj 237 -155 / 8;
#X obj 482 -70 / 8;
#X obj 320 -287 pix_info;
#X obj -292 -118 r flux-gem;
#X obj 237 -181 change;
#X obj 482 -120 change;
#X obj 570 45 * \$2;
#X msg 116 1050 draw fill;
#X obj 128 1087 r X-rect;
#X obj 154 1111 r Y-rect;
#X obj -5 249 r X-pos;
#X obj 64 449 * 1;
#X obj 99 449 * 1;
#X obj -5 268 t b f;
#X obj 30 322 t b f;
#X obj 30 303 r Y-pos;
#X obj 29 736 rotateXYZ;
#X obj 46 593 r X-rot;
#X obj 63 614 r Y-rot;
#X obj 80 635 r Z-rot;
#N canvas 0 0 322 491 rand-rotate 0;
#X obj 105 274 i;
#X obj 105 246 line;
#X obj 105 372 outlet;
#X obj 204 321 div 180;
#X obj 204 352 change;
#X obj 204 443 outlet;
#X obj 204 291 + 90;
#X obj 78 23 inlet;
#X obj 78 79 t b b;
#X msg 105 149 0;
#X obj 204 413 b;
#X obj 204 385 sel 1;
#X msg 25 149 360 500;
#X connect 0 0 2 0;
#X connect 1 0 0 0;
#X connect 3 0 4 0;
#X connect 4 0 11 0;
#X connect 6 0 3 0;
#X connect 7 0 8 0;
#X connect 8 0 12 0;
#X connect 8 1 9 0;
#X connect 9 0 1 0;
#X connect 10 0 5 0;
#X connect 11 0 10 0;
#X connect 12 0 1 0;
#X restore 101 664 pd rand-rotate;
#X obj 237 647 spigot;
#X obj 270 593 r rotate;
#X obj -160 818 rectangle 0.5 0.5;
#X obj -73 685 loadbang;
#X obj -61 751 r X-rect;
#X obj -35 775 r Y-rect;
#X msg -73 714 draw line;
#X obj -160 625 spigot;
#X obj -127 601 r grille;
#X obj -160 655 translateXYZ 0 0 0;
#X obj 406 267 r niveau-mvt;
#X obj -188 971 \$1;
#X obj -188 918 loadbang;
#X obj -161 971 \$2;
#X obj -188 943 t b b;
#X obj -188 1048 expr $f1*10+$f2;
#X obj -203 1115 f;
#X obj 307 319 pix_movement 0.05;
#X obj -203 1186 s nb-bang-de-mvt;
#X obj -276 1170 text2d;
#X msg -256 1133 text \$1;
#X obj -276 620 spigot;
#X obj -243 595 r nombre;
#X obj 415 650 > 0.3;
#X obj 170 886 once;
#X obj 170 924 t b b;
#X obj 230 908 del 300;
#X obj 269 866 r latence;
#X obj -160 419 gemhead 60;
#X obj -276 655 translateXYZ 0 0 0;
#X obj -276 552 separator;
#X obj -160 552 separator;
#X obj 532 -227 t b f;
#X obj 515 0 *;
#X obj 621 -226 t b f;
#X obj 570 236 +;
#X obj 532 -257 r X-rect-sml;
#X obj 621 -256 r Y-rect-sml;
#X obj 255 1011 r X-rect-sml;
#X obj 315 1046 r Y-rect-sml;
#X obj 626 62 -;
#X obj 614 17 t b f;
#X obj 626 178 / 2;
#X floatatom 263 -138 5 0 0 0 - - -;
#X floatatom 656 195 5 0 0 0 - - -;
#X floatatom 665 34 5 0 0 0 - - -;
#X floatatom 545 -53 5 0 0 0 - - -;
#X floatatom 655 79 5 0 0 0 - - -;
#X obj 496 -46 t f f f;
#X obj 256 -76 *;
#X obj 302 112 +;
#X obj 358 -14 -;
#X obj 346 -59 t b f;
#X obj 358 54 / 2;
#X floatatom 388 71 5 0 0 0 - - -;
#X floatatom 397 -42 5 0 0 0 - - -;
#X floatatom 387 3 5 0 0 0 - - -;
#X obj 237 -113 t f f f;
#X obj 302 -31 * \$1;
#X obj 255 1047 * 1.33;
#X obj -247 704 r X-rect-sml;
#X obj -187 739 r Y-rect-sml;
#X obj -247 740 * 1.33;
#X msg 415 741 1 \, 0 100;
#X obj -63 436 spigot;
#X obj -19 436 spigot;
#X obj -96 309 r video-bt;
#X obj -96 353 == 0;
#X obj 29 786 colorRGB 1 0 0;
#X obj 233 282 t a a;
#X obj -176 1153 init 16;
#X obj 122 687 r color;
#X obj 122 713 sel 0 1;
#X msg 122 745 1;
#X msg 154 745 0;
#X obj 29 550 spigot;
#X obj 62 497 r ghost;
#X obj 62 523 == 0;
#X connect 9 1 10 0;
#X connect 10 0 17 0;
#X connect 10 1 16 0;
#X connect 10 2 15 0;
#X connect 10 3 15 1;
#X connect 11 0 19 0;
#X connect 12 0 11 1;
#X connect 12 1 11 0;
#X connect 13 0 18 0;
#X connect 13 0 31 0;
#X connect 13 0 54 0;
#X connect 13 0 78 0;
#X connect 14 0 123 0;
#X connect 15 0 16 1;
#X connect 16 0 17 1;
#X connect 17 0 12 0;
#X connect 19 0 77 0;
#X connect 22 0 23 0;
#X connect 24 0 44 0;
#X connect 25 0 24 0;
#X connect 25 0 26 0;
#X connect 26 0 45 0;
#X connect 27 0 129 0;
#X connect 28 0 35 0;
#X connect 28 0 14 0;
#X connect 29 0 22 0;
#X connect 30 0 122 4;
#X connect 31 0 117 0;
#X connect 32 0 40 0;
#X connect 33 0 97 0;
#X connect 33 0 111 0;
#X connect 34 0 100 0;
#X connect 34 0 102 0;
#X connect 35 1 37 0;
#X connect 35 2 38 0;
#X connect 36 0 28 0;
#X connect 37 0 33 0;
#X connect 38 0 34 0;
#X connect 39 0 89 0;
#X connect 40 0 23 0;
#X connect 41 0 23 1;
#X connect 42 0 23 2;
#X connect 43 0 46 0;
#X connect 44 0 27 1;
#X connect 44 0 63 1;
#X connect 44 0 83 1;
#X connect 45 0 27 2;
#X connect 45 0 63 2;
#X connect 45 0 83 2;
#X connect 46 0 24 0;
#X connect 46 1 44 1;
#X connect 47 0 26 0;
#X connect 47 1 45 1;
#X connect 48 0 47 0;
#X connect 49 0 122 0;
#X connect 50 0 49 1;
#X connect 51 0 49 2;
#X connect 52 0 49 3;
#X connect 53 0 49 1;
#X connect 54 0 53 0;
#X connect 55 0 54 1;
#X connect 57 0 60 0;
#X connect 58 0 56 1;
#X connect 59 0 56 2;
#X connect 60 0 56 0;
#X connect 61 0 63 0;
#X connect 62 0 61 1;
#X connect 63 0 56 0;
#X connect 64 0 71 1;
#X connect 65 0 69 0;
#X connect 66 0 68 0;
#X connect 67 0 69 1;
#X connect 68 0 65 0;
#X connect 68 1 67 0;
#X connect 69 0 70 1;
#X connect 69 0 74 0;
#X connect 70 0 72 0;
#X connect 71 0 9 0;
#X connect 74 0 73 0;
#X connect 75 0 83 0;
#X connect 76 0 75 1;
#X connect 77 0 13 0;
#X connect 78 0 79 0;
#X connect 79 0 70 0;
#X connect 79 1 80 0;
#X connect 80 0 78 1;
#X connect 81 0 80 1;
#X connect 82 0 85 0;
#X connect 82 0 84 0;
#X connect 82 0 118 0;
#X connect 83 0 73 0;
#X connect 84 0 75 0;
#X connect 85 0 61 0;
#X connect 86 0 33 0;
#X connect 86 1 103 1;
#X connect 87 0 14 2;
#X connect 87 0 95 0;
#X connect 88 0 34 0;
#X connect 88 1 87 1;
#X connect 89 0 14 4;
#X connect 90 0 86 0;
#X connect 91 0 88 0;
#X connect 92 0 113 0;
#X connect 93 0 23 2;
#X connect 94 0 96 0;
#X connect 94 0 101 0;
#X connect 95 0 94 0;
#X connect 95 1 94 1;
#X connect 95 1 99 0;
#X connect 96 0 89 1;
#X connect 96 0 98 0;
#X connect 102 0 39 0;
#X connect 102 1 87 0;
#X connect 102 2 94 0;
#X connect 103 0 106 0;
#X connect 103 0 14 1;
#X connect 104 0 14 3;
#X connect 105 0 107 0;
#X connect 105 0 110 0;
#X connect 106 0 105 0;
#X connect 106 1 105 1;
#X connect 106 1 109 0;
#X connect 107 0 104 1;
#X connect 107 0 108 0;
#X connect 111 0 112 0;
#X connect 111 1 103 0;
#X connect 111 2 105 0;
#X connect 112 0 104 0;
#X connect 113 0 23 1;
#X connect 114 0 116 0;
#X connect 115 0 56 2;
#X connect 116 0 56 1;
#X connect 117 0 30 0;
#X connect 118 0 27 0;
#X connect 119 0 27 0;
#X connect 120 0 119 1;
#X connect 120 0 121 0;
#X connect 121 0 118 1;
#X connect 122 0 29 0;
#X connect 123 0 71 0;
#X connect 123 1 119 0;
#X connect 124 0 73 1;
#X connect 125 0 126 0;
#X connect 126 0 127 0;
#X connect 126 1 128 0;
#X connect 127 0 122 2;
#X connect 127 0 122 3;
#X connect 128 0 122 2;
#X connect 128 0 122 3;
#X connect 129 0 49 0;
#X connect 130 0 131 0;
#X connect 131 0 129 1;
