#N canvas 0 25 1351 643 10;
#X declare -lib unauthorized;
#X obj -92 -178 symbol \$1;
#X obj 107 -38 inlet;
#X obj 198 123 hsl 50 12 0 1 0 0 empty empty empty -2 -8 0 10 -262144
-1 -1 4900 1;
#X msg 381 372 set \$1;
#X obj 173 123 tgl 12 0 empty empty empty 17 7 0 10 -262144 -1 -1 1
1;
#X obj 115 277 sel 0 1;
#X msg 87 322 0;
#X obj 87 464 line~;
#X obj 0 480 *~;
#X obj 195 423 spigot;
#X obj 218 260 t f b f;
#X obj 195 355 1;
#X obj 107 123 bng 12 250 50 0 empty empty empty 17 7 0 10 -262144
-1 -1;
#X obj 137 249 spigot;
#X obj 151 123 tgl 12 0 empty empty empty 17 7 0 10 -262144 -1 -1 0
1;
#X obj 173 28 inlet;
#X obj 151 4 inlet;
#X msg 87 440 \$1 50;
#X obj 219 60 init 1;
#X obj 129 123 bng 12 250 50 0 empty empty empty 17 7 0 10 -262144
-1 -1;
#X obj 107 -226 import unauthorized;
#X obj -92 -21 soundfiler;
#X floatatom -92 25 10 0 0 0 - - -;
#X obj -92 1 / 64;
#X msg -92 48 resize \$1;
#X obj -92 -150 t s b;
#X obj -48 -150 float \$0;
#X obj -92 -133 route float;
#X obj -64 -88 makefilename %d-leftsample;
#X obj -35 -110 makefilename %d-rightsample;
#X obj -92 -64 pack s s s;
#X msg -92 -43 read -resize \$1 \$2 \$3;
#X obj -252 277 table \$0-leftsample;
#X obj -252 254 table \$0-rightsample;
#X obj 1 235 samplebox~ 2067;
#X msg 1 111 play;
#X msg -164 -110 record;
#X msg -273 -127 bang;
#X obj -347 -36 tabplay~ \$0-leftsample;
#X obj -273 -85 tabplay~ \$0-rightsample;
#X obj -273 -195 t b b;
#X obj 110 153 hsl 160 8 0 100 0 0 empty empty empty 20 8 0 8 -262144
-1 -1 0 1;
#X obj 110 161 hsl 160 8 0 100 0 0 empty empty empty 20 8 0 8 -262144
-1 -1 15900 1;
#X obj 18 65 init 100;
#X msg 40 143 stop;
#X msg 534 15 start;
#X msg 541 72 stop;
#X obj 534 -117 sel 1 0;
#X obj 260 123 tgl 12 0 empty empty empty 17 7 0 10 -262144 -1 -1 0
1;
#X obj 534 -79 t b b;
#X msg 561 -22 open \$1;
#X obj 561 -45 symbol \$1;
#X obj 456 -3 t b b;
#X obj 456 41 del 200;
#X obj -273 -157 del 200;
#X obj -273 -231 loadbang;
#X obj 598 32 writesf~ 2;
#X obj 31 395 *~;
#X obj 0 518 outlet~;
#X obj 31 433 outlet~;
#X obj -78 496 dac~ 1;
#X obj -78 411 dac~ 2;
#X obj 652 -93 inlet~;
#X obj 709 -93 inlet~;
#X obj 732 203 t b b b b b b b;
#X msg 804 232 0;
#X obj 746 432 f;
#X obj 219 38 init 0;
#X obj 18 47 init 0;
#X obj 790 283 f;
#X obj 775 374 f;
#X obj 775 337 del 100;
#X obj 790 311 + 1;
#X text 632 159 Ce monstre de noeud permet juste de faire Stop en enlevant
la boucle puis en reduisant la taille du sample lu.;
#X obj 782 -108 adc~;
#X obj 46 168 init 0;
#X obj 46 190 init 100;
#X obj -38 295 line~;
#X msg -38 271 \$1 50;
#X obj 107 176 tgl 8 0 empty empty empty 17 7 0 10 -262144 -1 -1 0
1;
#X obj 46 324 line~;
#X msg 46 300 \$1 50;
#X obj 46 267 invert;
#X obj 770 -79 hip~ 20;
#X obj 815 -79 hip~ 20;
#X obj 746 397 del 100;
#X obj 732 457 del 100;
#X obj -58 326 *~;
#X obj 31 355 *~;
#X obj -191 159 init 0;
#X text 124 170 stereo / mono;
#X obj 189 137 image panneau-sampleur2.gif;
#X obj 129 -18 inlet;
#X connect 0 0 25 0;
#X connect 1 0 12 0;
#X connect 2 0 11 0;
#X connect 3 0 2 0;
#X connect 4 0 10 0;
#X connect 5 0 6 0;
#X connect 5 1 11 0;
#X connect 6 0 17 0;
#X connect 7 0 8 1;
#X connect 7 0 57 1;
#X connect 8 0 58 0;
#X connect 8 0 60 0;
#X connect 9 0 17 0;
#X connect 10 0 5 0;
#X connect 10 1 11 0;
#X connect 10 2 9 1;
#X connect 11 0 3 0;
#X connect 11 0 9 0;
#X connect 12 0 35 0;
#X connect 13 0 12 0;
#X connect 14 0 13 1;
#X connect 14 0 66 1;
#X connect 15 0 4 0;
#X connect 16 0 14 0;
#X connect 17 0 7 0;
#X connect 18 0 4 0;
#X connect 19 0 64 0;
#X connect 21 0 23 0;
#X connect 22 0 24 0;
#X connect 23 0 22 0;
#X connect 24 0 34 0;
#X connect 25 0 30 0;
#X connect 25 1 26 0;
#X connect 26 0 27 0;
#X connect 27 0 28 0;
#X connect 27 0 29 0;
#X connect 28 0 30 1;
#X connect 29 0 30 2;
#X connect 30 0 31 0;
#X connect 31 0 21 0;
#X connect 34 0 8 0;
#X connect 34 0 87 0;
#X connect 34 1 88 0;
#X connect 34 3 13 0;
#X connect 35 0 34 0;
#X connect 36 0 34 0;
#X connect 37 0 36 0;
#X connect 37 0 38 0;
#X connect 37 0 39 0;
#X connect 38 0 34 0;
#X connect 39 0 34 1;
#X connect 40 0 54 0;
#X connect 40 1 0 0;
#X connect 41 0 34 2;
#X connect 41 0 69 1;
#X connect 42 0 34 3;
#X connect 42 0 70 1;
#X connect 43 0 42 0;
#X connect 44 0 34 0;
#X connect 45 0 56 0;
#X connect 46 0 56 0;
#X connect 47 0 49 0;
#X connect 47 1 52 0;
#X connect 48 0 47 0;
#X connect 49 0 45 0;
#X connect 49 1 51 0;
#X connect 50 0 56 0;
#X connect 51 0 50 0;
#X connect 52 0 53 0;
#X connect 52 1 46 0;
#X connect 53 0 40 0;
#X connect 54 0 37 0;
#X connect 55 0 40 0;
#X connect 57 0 59 0;
#X connect 57 0 61 0;
#X connect 62 0 56 0;
#X connect 63 0 56 1;
#X connect 64 0 86 0;
#X connect 64 1 85 0;
#X connect 64 3 71 0;
#X connect 64 4 69 0;
#X connect 64 5 65 0;
#X connect 64 6 6 0;
#X connect 65 0 13 1;
#X connect 66 0 14 0;
#X connect 67 0 14 0;
#X connect 68 0 41 0;
#X connect 69 0 72 0;
#X connect 70 0 34 3;
#X connect 71 0 70 0;
#X connect 72 0 34 3;
#X connect 74 0 83 0;
#X connect 74 1 84 0;
#X connect 75 0 34 4;
#X connect 76 0 34 5;
#X connect 77 0 87 1;
#X connect 78 0 77 0;
#X connect 79 0 78 0;
#X connect 79 0 82 0;
#X connect 80 0 88 1;
#X connect 81 0 80 0;
#X connect 82 0 81 0;
#X connect 83 0 56 0;
#X connect 84 0 56 1;
#X connect 85 0 66 0;
#X connect 86 0 11 0;
#X connect 87 0 57 0;
#X connect 88 0 57 0;
#X connect 89 0 79 0;
#X connect 92 0 19 0;
#X coords 0 -1 1 1 180 90 1 100 100;
