#N canvas 2 25 1364 656 10;
#X obj -360 154 osc~;
#X obj -203 85 gate 4;
#X obj -230 8 t f b;
#X floatatom 196 102 5 0 0 0 - - -;
#X floatatom 236 102 5 0 0 0 - - -;
#X floatatom 276 102 5 0 0 0 - - -;
#X floatatom 316 102 5 0 0 0 - - -;
#X obj -244 154 osc~;
#X obj -13 154 osc~;
#X obj -129 154 osc~;
#X obj -230 -63 inlet;
#X obj -360 207 outlet~;
#X obj -244 206 outlet~;
#X obj -130 207 outlet~;
#X obj -14 206 outlet~;
#X obj 174 358 outlet~;
#X text 223 357 Sortie generale;
#X obj -203 57 counter 1 2;
#X connect 0 0 11 0;
#X connect 0 0 15 0;
#X connect 1 0 3 0;
#X connect 1 0 0 0;
#X connect 1 1 4 0;
#X connect 1 1 7 0;
#X connect 1 2 5 0;
#X connect 1 2 9 0;
#X connect 1 3 6 0;
#X connect 1 3 8 0;
#X connect 2 0 1 1;
#X connect 2 1 17 0;
#X connect 7 0 12 0;
#X connect 7 0 15 0;
#X connect 8 0 14 0;
#X connect 8 0 15 0;
#X connect 9 0 13 0;
#X connect 9 0 15 0;
#X connect 10 0 2 0;
#X connect 17 0 1 0;
#X coords 0 -1 1 1 250 20 1 100 100;
