#N canvas 137 83 1186 661 10;
#X declare -lib mrpeach;
#X obj 98 498 dac~;
#X text 42 820 Jazz Kit sampler drum box;
#X text 40 843 Andy J Farnell 2006 (http://www.obiwannabe.co.uk);
#X obj 142 653 r metro;
#X floatatom 178 693 5 0 0 0 - - -;
#X floatatom 146 782 5 0 0 0 - - -;
#X obj 123 728 expr 60000/$f1/2;
#X obj 242 315 cnv 15 300 200 empty empty JAZZMAN 20 12 0 14 -257472
-66577 0;
#X obj 242 346 cnv 15 300 48 empty empty empty 20 12 0 14 -228992 -66577
0;
#X obj 242 401 cnv 15 300 48 empty empty empty 20 12 0 14 -228992 -66577
0;
#X obj 243 458 cnv 15 300 48 empty empty empty 20 12 0 14 -228992 -66577
0;
#X obj 307 469 vsl 12 32 0 1 0 0 empty empty Kick 0 -8 0 8 -24198 -1
-1 1550 1;
#X obj 263 469 vsl 12 32 0 1 0 0 empty empty HH 0 -8 0 10 -258699 -1
-1 1550 1;
#X obj 349 469 vsl 12 32 0 1 0 0 empty empty Snare 0 -8 0 8 -260818
-1 -1 1550 1;
#X obj 364 358 vsl 12 32 2 0.5 0 0 empty empty busy 0 -8 0 8 -241291
-1 -1 1973 1;
#X obj 410 358 vsl 12 32 0.3 1.2 0 0 empty empty swing 0 -8 0 8 -260818
-1 -1 2136 1;
#X obj 308 358 vsl 12 32 150 400 0 0 empty empty speed 0 -8 0 8 -44926
-1 -1 2192 1;
#X obj 916 278 loadbang;
#X obj 262 413 vsl 12 32 1 8 0 0 empty empty hihat_steps 0 -8 0 10
-261689 -1 -1 1991 1;
#X obj 437 414 vsl 12 32 1 12 0 0 empty empty snare_runs 0 -8 0 8 -261681
-1 -1 1807 1;
#X obj 346 412 vsl 12 32 1 12 0 0 empty empty kick_runs 0 -8 0 10 -225271
-1 -1 166 1;
#X obj 486 469 vsl 12 32 1 4 1 0 empty empty distort 0 -8 0 8 -250685
-1 -1 2150 1;
#X obj 399 469 vsl 12 32 70 4000 0 0 empty empty F 0 -8 0 8 -44926
-1 -1 2207 1;
#X obj 445 469 vsl 12 32 0.1 6 1 0 empty empty Q 0 -8 0 8 -62784 -1
-1 1998 1;
#X obj 265 357 vsl 12 32 0 1 0 0 empty empty vol 0 -8 0 8 -262131 -1
-1 1460 1;
#X obj 536 592 s \$0-busy;
#X obj 578 571 s \$0-swing;
#X obj 493 568 s \$0-speed;
#X obj 425 676 s \$0-hhsteps;
#X obj 517 675 s \$0-kicksteps;
#X obj 570 695 s \$0-snaresteps;
#X obj 513 611 s \$0-snarel;
#X obj 607 614 s \$0-filq;
#X obj 474 638 s \$0-kickl;
#X obj 565 638 s \$0-filf;
#X obj 432 615 s \$0-hhl;
#X obj 446 586 s \$0-mainvol;
#X msg 785 311 1600;
#X msg 826 311 1.4;
#X msg 750 311 0.5;
#N canvas 37 23 725 699 gubbins 0;
#X floatatom 314 271 0 0 144 0 - - -;
#N canvas 0 22 326 253 loadsamples 0;
#X obj 22 200 soundfiler;
#X obj 72 134 makefilename #0-drum%d;
#X obj 22 156 pack s s;
#X msg 22 179 read -resize \$1 \$2;
#X msg 47 23 bang;
#X obj 47 66 until;
#X obj 47 87 f 0;
#X obj 75 87 + 1;
#X obj 109 87 sel 31;
#X msg 103 53 0;
#X obj 99 21 loadbang;
#X obj 22 114 makefilename ./sounds/kit/1/sound%d.wav;
#X connect 1 0 2 1;
#X connect 2 0 3 0;
#X connect 3 0 0 0;
#X connect 4 0 5 0;
#X connect 5 0 6 0;
#X connect 6 0 7 0;
#X connect 6 0 8 0;
#X connect 6 0 1 0;
#X connect 6 0 11 0;
#X connect 7 0 6 1;
#X connect 8 0 5 1;
#X connect 8 0 9 0;
#X connect 9 0 6 1;
#X connect 10 0 5 0;
#X connect 11 0 2 0;
#X restore 408 41 pd loadsamples;
#N canvas 0 22 700 225 tables 0;
#X obj 8 13 table #0-drum0 2048;
#X obj 8 33 table #0-drum1 2048;
#X obj 8 53 table #0-drum2 2048;
#X obj 8 72 table #0-drum3 2048;
#X obj 8 91 table #0-drum4 2048;
#X obj 8 111 table #0-drum5 2048;
#X obj 8 130 table #0-drum6 2048;
#X obj 8 150 table #0-drum7 2048;
#X obj 182 14 table #0-drum8 2048;
#X obj 182 34 table #0-drum9 2048;
#X obj 182 54 table #0-drum10 2048;
#X obj 182 73 table #0-drum11 2048;
#X obj 182 92 table #0-drum12 2048;
#X obj 182 112 table #0-drum13 2048;
#X obj 182 131 table #0-drum14 2048;
#X obj 182 151 table #0-drum15 2048;
#X obj 354 12 table #0-drum16 2048;
#X obj 354 32 table #0-drum17 2048;
#X obj 354 52 table #0-drum18 2048;
#X obj 354 71 table #0-drum19 2048;
#X obj 354 90 table #0-drum20 2048;
#X obj 354 110 table #0-drum21 2048;
#X obj 354 129 table #0-drum22 2048;
#X obj 354 149 table #0-drum23 2048;
#X obj 515 11 table #0-drum24 2048;
#X obj 515 31 table #0-drum25 2048;
#X obj 514 51 table #0-drum26 2048;
#X obj 515 70 table #0-drum27 2048;
#X obj 514 88 table #0-drum28 2048;
#X obj 515 109 table #0-drum29 2048;
#X obj 515 128 table #0-drum30 2048;
#X obj 515 148 table #0-drum31 2048;
#X restore 406 64 pd tables;
#X obj 296 462 random 16;
#N canvas 0 22 425 381 playeri1 0;
#X obj 247 198 hip~ 5;
#X obj 247 145 vline~;
#X obj 247 173 tabread4~;
#X obj 247 222 *~ 0.5;
#X obj 180 115 r i1snum;
#X obj 247 115 r i1phase;
#X obj 323 29 inlet;
#X text 313 8 vol;
#X obj 43 162 makefilename #0-drum%d;
#X obj 42 118 max 0;
#X obj 42 140 min 31;
#X msg 43 184 \; i1snum set \$1 \; i1phase 1 \, 4.41e+08 1e+07 \;;
#X obj 40 46 inlet;
#X text 36 23 note/sound;
#X text 101 -16 i1;
#X obj 245 254 outlet~;
#X connect 0 0 3 0;
#X connect 1 0 2 0;
#X connect 2 0 0 0;
#X connect 3 0 15 0;
#X connect 4 0 2 0;
#X connect 5 0 1 0;
#X connect 6 0 3 1;
#X connect 8 0 11 0;
#X connect 9 0 10 0;
#X connect 10 0 8 0;
#X connect 12 0 9 0;
#X restore 496 603 pd playeri1;
#X obj 265 176 f;
#X obj 294 176 + 1;
#X obj 497 455 sel 0;
#X obj 490 374 sel 5 13;
#X obj 497 475 random 7;
#X obj 162 401 + 16;
#X obj 497 432 random 2;
#X floatatom 308 485 5 0 0 0 - - -;
#X floatatom 504 527 5 0 0 0 - - -;
#X obj 497 497 + 25;
#X obj 266 270 mod 16;
#X obj 265 200 / 2;
#X obj 265 222 int;
#X obj 266 243 change;
#N canvas 0 22 425 381 playeri3 0;
#X obj 247 198 hip~ 5;
#X obj 247 145 vline~;
#X obj 247 173 tabread4~;
#X obj 247 222 *~ 0.5;
#X obj 323 29 inlet;
#X text 313 8 vol;
#X obj 43 162 makefilename #0-drum%d;
#X obj 42 118 max 0;
#X obj 42 140 min 31;
#X obj 40 46 inlet;
#X text 36 23 note/sound;
#X text 101 -16 i1;
#X obj 245 254 outlet~;
#X msg 43 184 \; i3snum set \$1 \; i3phase 1 \, 4.41e+08 1e+07 \;;
#X obj 247 115 r i3phase;
#X obj 180 115 r i3snum;
#X connect 0 0 3 0;
#X connect 1 0 2 0;
#X connect 2 0 0 0;
#X connect 3 0 12 0;
#X connect 4 0 3 1;
#X connect 6 0 13 0;
#X connect 7 0 8 0;
#X connect 8 0 6 0;
#X connect 9 0 7 0;
#X connect 14 0 1 0;
#X connect 15 0 2 0;
#X restore 325 597 pd playeri3;
#N canvas 0 22 425 381 playeri2 0;
#X obj 247 198 hip~ 5;
#X obj 247 145 vline~;
#X obj 247 173 tabread4~;
#X obj 247 222 *~ 0.5;
#X obj 323 29 inlet;
#X text 313 8 vol;
#X obj 43 162 makefilename #0-drum%d;
#X obj 42 118 max 0;
#X obj 42 140 min 31;
#X obj 40 46 inlet;
#X text 36 23 note/sound;
#X text 101 -16 i1;
#X obj 245 254 outlet~;
#X msg 43 184 \; i2snum set \$1 \; i2phase 1 \, 4.41e+08 1e+07 \;;
#X obj 247 115 r i2phase;
#X obj 180 115 r i2snum;
#X connect 0 0 3 0;
#X connect 1 0 2 0;
#X connect 2 0 0 0;
#X connect 3 0 12 0;
#X connect 4 0 3 1;
#X connect 6 0 13 0;
#X connect 7 0 8 0;
#X connect 8 0 6 0;
#X connect 9 0 7 0;
#X connect 14 0 1 0;
#X connect 15 0 2 0;
#X restore 167 601 pd playeri2;
#X obj 292 140 del 100;
#X obj 350 91 / 2;
#N canvas 0 22 729 266 rupto 0;
#X obj 106 124 f;
#X obj 135 124 + 1;
#X obj 146 176 sel 1;
#X msg 148 199 0;
#X obj 164 25 inlet;
#X floatatom 204 155 5 0 0 0 - - -;
#X floatatom 89 162 5 0 0 0 - - -;
#X msg 191 50 bang;
#X obj 145 153 >=;
#X obj 96 96 spigot;
#X msg 160 73 1;
#X obj 54 161 t b;
#X obj 98 24 inlet;
#X obj 59 207 outlet;
#X text 83 7 metro;
#X text 162 8 trigbang;
#X text 286 129 send out random bangs at metro freq when triggered
;
#X obj 193 101 random 6;
#X obj 290 20 inlet;
#X connect 0 0 1 0;
#X connect 0 0 6 0;
#X connect 0 0 8 0;
#X connect 0 0 11 0;
#X connect 1 0 0 1;
#X connect 2 0 3 0;
#X connect 3 0 0 1;
#X connect 3 0 9 1;
#X connect 4 0 7 0;
#X connect 4 0 10 0;
#X connect 7 0 17 0;
#X connect 8 0 2 0;
#X connect 9 0 0 0;
#X connect 10 0 9 1;
#X connect 11 0 13 0;
#X connect 12 0 9 0;
#X connect 17 0 5 0;
#X connect 17 0 8 1;
#X connect 18 0 17 1;
#X restore 496 409 pd rupto;
#X obj 292 375 sel 0 8;
#N canvas 0 22 729 266 rupto 0;
#X obj 106 124 f;
#X obj 135 124 + 1;
#X obj 146 176 sel 1;
#X msg 148 199 0;
#X obj 164 25 inlet;
#X floatatom 204 155 5 0 0 0 - - -;
#X floatatom 89 162 5 0 0 0 - - -;
#X msg 191 50 bang;
#X obj 145 153 >=;
#X obj 96 96 spigot;
#X msg 160 73 1;
#X obj 54 161 t b;
#X obj 98 24 inlet;
#X obj 59 207 outlet;
#X text 83 7 metro;
#X text 162 8 trigbang;
#X text 286 129 send out random bangs at metro freq when triggered
;
#X obj 193 101 random 6;
#X obj 290 20 inlet;
#X connect 0 0 1 0;
#X connect 0 0 6 0;
#X connect 0 0 8 0;
#X connect 0 0 11 0;
#X connect 1 0 0 1;
#X connect 2 0 3 0;
#X connect 3 0 0 1;
#X connect 3 0 9 1;
#X connect 4 0 7 0;
#X connect 4 0 10 0;
#X connect 7 0 17 0;
#X connect 8 0 2 0;
#X connect 9 0 0 0;
#X connect 10 0 9 1;
#X connect 11 0 13 0;
#X connect 12 0 9 0;
#X connect 17 0 5 0;
#X connect 17 0 8 1;
#X connect 18 0 17 1;
#X restore 296 440 pd rupto;
#X obj 162 378 mod 7;
#X obj 161 340 int;
#X floatatom 161 361 5 0 0 0 - - -;
#X obj 138 53 t;
#X obj 300 77 f;
#X floatatom 89 44 5 0 0 0 - - -;
#X floatatom 372 174 5 0 0 0 - - -;
#X obj 239 107 metro 300;
#X obj 352 120 * 0.6;
#X msg 311 51 300;
#X obj 311 30 loadbang;
#X obj 545 324 int;
#X floatatom 572 353 5 0 0 0 - - -;
#X obj 422 297 int;
#X floatatom 453 298 5 0 0 0 - - -;
#X obj 356 725 dist~;
#X obj 362 812 outlet~;
#X obj 326 675 vcf~;
#X obj 363 785 *~;
#X obj 172 19 r \$0-busy;
#X floatatom 172 46 5 0 0 0 - - -;
#X obj 87 9 r \$0-swing;
#X obj 284 9 r \$0-speed;
#X obj 567 582 r \$0-snarel;
#X obj 380 761 r \$0-mainvol;
#X obj 393 574 r \$0-kickl;
#X obj 376 624 r \$0-filq;
#X obj 308 623 r \$0-filf;
#X obj 233 576 r \$0-hhl;
#X obj 105 256 r \$0-hhsteps;
#X obj 424 272 r \$0-kicksteps;
#X obj 545 294 r \$0-snaresteps;
#X obj 387 704 max 0.5;
#X obj 386 682 min 5;
#X obj 387 660 r \$0-distort;
#X obj 30 20 inlet;
#X text 16 1 go;
#X obj 392 229 s metro;
#X obj 193 155 s beat;
#X connect 3 0 19 0;
#X connect 3 0 12 0;
#X connect 4 0 43 0;
#X connect 5 0 6 0;
#X connect 5 0 16 0;
#X connect 6 0 5 1;
#X connect 7 0 9 0;
#X connect 8 0 23 1;
#X connect 8 1 23 1;
#X connect 9 0 14 0;
#X connect 10 0 20 0;
#X connect 11 0 7 0;
#X connect 14 0 4 0;
#X connect 14 0 13 0;
#X connect 15 0 0 0;
#X connect 15 0 8 0;
#X connect 15 0 24 0;
#X connect 15 0 26 0;
#X connect 16 0 17 0;
#X connect 17 0 18 0;
#X connect 18 0 15 0;
#X connect 19 0 43 0;
#X connect 20 0 43 0;
#X connect 21 0 5 0;
#X connect 21 0 23 0;
#X connect 21 0 25 0;
#X connect 22 0 34 0;
#X connect 23 0 11 0;
#X connect 24 0 25 1;
#X connect 24 1 25 1;
#X connect 25 0 3 0;
#X connect 26 0 10 0;
#X connect 27 0 28 0;
#X connect 27 0 26 1;
#X connect 29 0 30 0;
#X connect 30 0 22 0;
#X connect 30 0 33 1;
#X connect 30 0 63 0;
#X connect 33 0 21 0;
#X connect 33 0 5 0;
#X connect 33 0 25 0;
#X connect 33 0 23 0;
#X connect 33 0 64 0;
#X connect 34 0 21 1;
#X connect 34 0 32 0;
#X connect 35 0 30 0;
#X connect 36 0 35 0;
#X connect 37 0 38 0;
#X connect 37 0 23 2;
#X connect 39 0 40 0;
#X connect 39 0 25 2;
#X connect 41 0 44 0;
#X connect 43 0 41 0;
#X connect 44 0 42 0;
#X connect 45 0 16 1;
#X connect 45 0 29 0;
#X connect 45 0 46 0;
#X connect 47 0 29 0;
#X connect 47 0 31 0;
#X connect 47 0 34 1;
#X connect 48 0 30 0;
#X connect 49 0 4 1;
#X connect 50 0 44 1;
#X connect 51 0 19 1;
#X connect 52 0 43 2;
#X connect 53 0 43 1;
#X connect 54 0 20 1;
#X connect 55 0 27 0;
#X connect 56 0 39 0;
#X connect 57 0 37 0;
#X connect 58 0 41 1;
#X connect 59 0 58 0;
#X connect 60 0 59 0;
#X connect 61 0 33 0;
#X restore 98 431 pd gubbins;
#X obj 355 328 tgl 15 0 empty empty start 0 -6 0 8 -262144 -1 -1 0
1;
#X msg 969 310 5;
#X msg 1008 308 3;
#X obj 648 635 s \$0-distort;
#X msg 924 309 0.92;
#X msg 860 312 230;
#X msg 893 311 1.2;
#X msg 1079 308 2;
#X msg 1043 309 0.6;
#X obj 53 592 r beat;
#X obj 45 634 bng 15 250 50 0 empty empty empty 17 7 0 10 -262144 -1
-1;
#X obj 64 85 print;
#X floatatom 145 124 5 0 0 0 - - -;
#X obj 147 77 OSCroute /gyro;
#X floatatom 203 125 5 0 0 0 - - -;
#X obj 147 54 OSCroute /aOSC;
#X obj 147 100 OSCroute /x /y /z;
#X obj 41 11 import mrpeach;
#X obj 148 30 dumpOSC 8000;
#X text 696 24 Celular com tela contra o peito \, na horizontal;
#X text 716 57 Y: deitar pra frente. vai de ~20 a ~150. ponto neutro
é 90;
#X text 716 42 X: deitar pros lados. vai de -60 a 60 ponto neutro é
zero;
#X obj 204 148 expr ($f1 - 20)/16.25;
#X floatatom 141 200 5 0 0 0 - - -;
#X obj 142 173 expr ($f1 + 20)/8 + 2;
#X floatatom 40 178 5 0 0 0 - - -;
#X obj 40 148 expr (-$f1 + 20)/8 + 2;
#X obj 476 231 sendOSC;
#X msg 514 175 send /activeclip/video/position/speed \$1;
#X floatatom 529 150 5 0 0 0 - - -;
#X obj 570 129 hsl 128 15 0 1 0 0 empty empty empty -2 -8 0 10 -262144
-1 -1 1928 1;
#X obj 407 105 expr $f1 / 90 / 8;
#X msg 551 210 send /activeclip/video/position/direction \$1;
#X obj 336 179 moses -15;
#X obj 371 205 moses 15;
#X obj 330 200 bng 15 250 50 0 empty empty empty 17 7 0 10 -262144
-1 -1;
#X obj 371 272 change;
#X obj 403 228 bng 15 250 50 0 empty empty empty 17 7 0 10 -262144
-1 -1;
#X msg 329 220 1;
#X msg 399 247 0;
#X text 717 74 Z: girar pros lados. de 20 a -160 neutro no 90 (varia
por lugar);
#X text 518 76 CONECTAR COM RESOLUME:;
#X text 351 157 Controlar resolume:;
#X floatatom 255 125 5 0 0 0 - - -;
#X floatatom 246 234 5 0 0 0 - - -;
#X msg 535 102 connect 192.168.43.172 7000;
#X obj 234 208 expr (-$f1 / 90) + 0.3;
#X connect 3 0 4 0;
#X connect 3 0 6 0;
#X connect 6 0 5 0;
#X connect 11 0 33 0;
#X connect 12 0 35 0;
#X connect 13 0 31 0;
#X connect 14 0 25 0;
#X connect 15 0 26 0;
#X connect 16 0 27 0;
#X connect 17 0 38 0;
#X connect 17 0 37 0;
#X connect 17 0 39 0;
#X connect 17 0 46 0;
#X connect 17 0 47 0;
#X connect 17 0 45 0;
#X connect 17 0 42 0;
#X connect 17 0 43 0;
#X connect 17 0 49 0;
#X connect 17 0 48 0;
#X connect 18 0 28 0;
#X connect 19 0 30 0;
#X connect 20 0 29 0;
#X connect 21 0 44 0;
#X connect 22 0 34 0;
#X connect 23 0 32 0;
#X connect 24 0 36 0;
#X connect 37 0 22 0;
#X connect 38 0 23 0;
#X connect 39 0 13 0;
#X connect 39 0 11 0;
#X connect 39 0 12 0;
#X connect 40 0 0 0;
#X connect 40 0 0 1;
#X connect 41 0 40 0;
#X connect 42 0 18 0;
#X connect 43 0 20 0;
#X connect 43 0 19 0;
#X connect 45 0 15 0;
#X connect 46 0 16 0;
#X connect 47 0 14 0;
#X connect 48 0 21 0;
#X connect 49 0 24 0;
#X connect 50 0 51 0;
#X connect 53 0 65 0;
#X connect 53 0 74 0;
#X connect 54 0 57 0;
#X connect 55 0 63 0;
#X connect 55 0 72 0;
#X connect 56 0 54 0;
#X connect 57 0 53 0;
#X connect 57 0 67 0;
#X connect 57 1 55 0;
#X connect 57 2 84 0;
#X connect 59 0 56 0;
#X connect 63 0 18 0;
#X connect 64 0 20 0;
#X connect 65 0 64 0;
#X connect 66 0 19 0;
#X connect 67 0 66 0;
#X connect 69 0 68 0;
#X connect 70 0 69 0;
#X connect 71 0 70 0;
#X connect 72 0 71 0;
#X connect 73 0 68 0;
#X connect 74 0 76 0;
#X connect 74 1 75 0;
#X connect 75 1 78 0;
#X connect 76 0 79 0;
#X connect 77 0 73 0;
#X connect 78 0 80 0;
#X connect 79 0 77 0;
#X connect 80 0 77 0;
#X connect 84 0 87 0;
#X connect 85 0 14 0;
#X connect 86 0 68 0;
#X connect 87 0 85 0;
