#N canvas -8 -8 1366 685 10;
#X obj 27 234 sendOSC;
#X msg 13 43 connect localhost 7000;
#X msg 43 86 disconnect;
#X floatatom 189 166 5 0 0 0 - - -;
#X obj 160 97 bng 15 250 50 0 empty empty empty 17 7 0 10 -262144 -1
-1;
#X msg 61 194 send /layer1/clip\$1/connect 1;
#X msg 166 9 bang;
#X msg 214 8 stop;
#X obj 197 60 metro;
#X obj 128 135 shuffle 1 6;
#X obj 262 36 * 1000;
#X obj 295 8 shuffle 15 30;
#X floatatom 340 38 5 0 0 0 - - -;
#X connect 1 0 0 0;
#X connect 2 0 0 0;
#X connect 4 0 9 0;
#X connect 5 0 0 0;
#X connect 6 0 8 0;
#X connect 7 0 8 0;
#X connect 8 0 4 0;
#X connect 8 0 11 0;
#X connect 9 0 3 0;
#X connect 9 0 5 0;
#X connect 10 0 8 1;
#X connect 11 0 10 1;
#X connect 11 0 12 0;
